<?xml version="1.0" encoding="UTF-8" standalone="no"?>
<!DOCTYPE svg PUBLIC "-//W3C//DTD SVG 1.1//EN"
 "http://www.w3.org/Graphics/SVG/1.1/DTD/svg11.dtd">
<!-- Generated by graphviz version 2.44.1 (20200629.0846)
 -->
<!-- Title: dependencies Pages: 1 -->
<svg width="826pt" height="284pt"
 viewBox="0.00 0.00 826.00 284.00" xmlns="http://www.w3.org/2000/svg" xmlns:xlink="http://www.w3.org/1999/xlink">
<g id="graph0" class="graph" transform="scale(1 1) rotate(0) translate(4 280)">
<title>dependencies</title>
<polygon fill="white" stroke="transparent" points="-4,4 -4,-280 822,-280 822,4 -4,4"/>
<text text-anchor="start" x="388.01" y="-42.4" font-family="sans-serif" font-weight="bold" font-size="14.00">Legend</text>
<polygon fill="#ffffb3" stroke="transparent" points="175,-10 175,-30 195,-30 195,-10 175,-10"/>
<text text-anchor="start" x="198.63" y="-15.4" font-family="sans-serif" font-size="14.00"> &#160;Declarations</text>
<polygon fill="#8dd3c7" stroke="transparent" points="288,-10 288,-30 308,-30 308,-10 288,-10"/>
<text text-anchor="start" x="311.73" y="-15.4" font-family="sans-serif" font-size="14.00"> &#160;Module</text>
<polygon fill="#80b1d3" stroke="transparent" points="374,-10 374,-30 394,-30 394,-10 374,-10"/>
<text text-anchor="start" x="397.78" y="-15.4" font-family="sans-serif" font-size="14.00"> &#160;Bootstrap</text>
<polygon fill="#fdb462" stroke="transparent" points="471,-10 471,-30 491,-30 491,-10 471,-10"/>
<text text-anchor="start" x="494.67" y="-15.4" font-family="sans-serif" font-size="14.00"> &#160;Providers</text>
<polygon fill="#fb8072" stroke="transparent" points="567,-10 567,-30 587,-30 587,-10 567,-10"/>
<text text-anchor="start" x="590.73" y="-15.4" font-family="sans-serif" font-size="14.00"> &#160;Exports</text>
<g id="clust1" class="cluster">
<title>cluster_IconsModule</title>
<polygon fill="none" stroke="black" stroke-dasharray="1,5" points="8,-70 8,-268 810,-268 810,-70 8,-70"/>
</g>
<g id="clust9" class="cluster">
<title>cluster_IconsModule_exports</title>
<polygon fill="none" stroke="black" points="16,-208 16,-260 802,-260 802,-208 16,-208"/>
</g>
<g id="clust2" class="cluster">
<title>cluster_IconsModule_declarations</title>
<polygon fill="none" stroke="black" points="24,-78 24,-130 792,-130 792,-78 24,-78"/>
</g>
<!-- IconCloseComponent -->
<g id="node1" class="node">
<title>IconCloseComponent</title>
<polygon fill="#ffffb3" stroke="black" points="784.09,-122 645.91,-122 645.91,-86 784.09,-86 784.09,-122"/>
<text text-anchor="middle" x="715" y="-99.8" font-family="Times,serif" font-size="14.00">IconCloseComponent</text>
</g>
<!-- IconsModule -->
<g id="node6" class="node">
<title>IconsModule</title>
<polygon fill="#8dd3c7" stroke="black" points="447.87,-187 444.87,-191 423.87,-191 420.87,-187 358.13,-187 358.13,-151 447.87,-151 447.87,-187"/>
<text text-anchor="middle" x="403" y="-164.8" font-family="Times,serif" font-size="14.00">IconsModule</text>
</g>
<!-- IconCloseComponent&#45;&gt;IconsModule -->
<g id="edge1" class="edge">
<title>IconCloseComponent&#45;&gt;IconsModule</title>
<path fill="none" stroke="black" d="M740.1,-122.27C740.1,-140.56 740.1,-166 740.1,-166 740.1,-166 458.11,-166 458.11,-166"/>
<polygon fill="black" stroke="black" points="458.11,-162.5 448.11,-166 458.11,-169.5 458.11,-162.5"/>
</g>
<!-- IconDeleteComponent -->
<g id="node2" class="node">
<title>IconDeleteComponent</title>
<polygon fill="#ffffb3" stroke="black" points="628.24,-122 485.76,-122 485.76,-86 628.24,-86 628.24,-122"/>
<text text-anchor="middle" x="557" y="-99.8" font-family="Times,serif" font-size="14.00">IconDeleteComponent</text>
</g>
<!-- IconDeleteComponent&#45;&gt;IconsModule -->
<g id="edge2" class="edge">
<title>IconDeleteComponent&#45;&gt;IconsModule</title>
<path fill="none" stroke="black" d="M581.54,-122.01C581.54,-138.05 581.54,-159 581.54,-159 581.54,-159 458.05,-159 458.05,-159"/>
<polygon fill="black" stroke="black" points="458.05,-155.5 448.05,-159 458.05,-162.5 458.05,-155.5"/>
</g>
<!-- IconEditComponent -->
<g id="node3" class="node">
<title>IconEditComponent</title>
<polygon fill="#ffffb3" stroke="black" points="467.54,-122 338.46,-122 338.46,-86 467.54,-86 467.54,-122"/>
<text text-anchor="middle" x="403" y="-99.8" font-family="Times,serif" font-size="14.00">IconEditComponent</text>
</g>
<!-- IconEditComponent&#45;&gt;IconsModule -->
<g id="edge3" class="edge">
<title>IconEditComponent&#45;&gt;IconsModule</title>
<path fill="none" stroke="black" d="M403,-122.11C403,-122.11 403,-140.99 403,-140.99"/>
<polygon fill="black" stroke="black" points="399.5,-140.99 403,-150.99 406.5,-140.99 399.5,-140.99"/>
</g>
<!-- IconLoginComponent -->
<g id="node4" class="node">
<title>IconLoginComponent</title>
<polygon fill="#ffffb3" stroke="black" points="319.65,-122 180.35,-122 180.35,-86 319.65,-86 319.65,-122"/>
<text text-anchor="middle" x="250" y="-99.8" font-family="Times,serif" font-size="14.00">IconLoginComponent</text>
</g>
<!-- IconLoginComponent&#45;&gt;IconsModule -->
<g id="edge4" class="edge">
<title>IconLoginComponent&#45;&gt;IconsModule</title>
<path fill="none" stroke="black" d="M272.44,-122.01C272.44,-138.05 272.44,-159 272.44,-159 272.44,-159 348.07,-159 348.07,-159"/>
<polygon fill="black" stroke="black" points="348.07,-162.5 358.07,-159 348.07,-155.5 348.07,-162.5"/>
</g>
<!-- IconNavComponent -->
<g id="node5" class="node">
<title>IconNavComponent</title>
<polygon fill="#ffffb3" stroke="black" points="161.53,-122 32.47,-122 32.47,-86 161.53,-86 161.53,-122"/>
<text text-anchor="middle" x="97" y="-99.8" font-family="Times,serif" font-size="14.00">IconNavComponent</text>
</g>
<!-- IconNavComponent&#45;&gt;IconsModule -->
<g id="edge5" class="edge">
<title>IconNavComponent&#45;&gt;IconsModule</title>
<path fill="none" stroke="black" d="M115.75,-122.27C115.75,-140.56 115.75,-166 115.75,-166 115.75,-166 348.12,-166 348.12,-166"/>
<polygon fill="black" stroke="black" points="348.12,-169.5 358.12,-166 348.12,-162.5 348.12,-169.5"/>
</g>
<!-- IconCloseComponent  -->
<g id="node7" class="node">
<title>IconCloseComponent </title>
<polygon fill="#fb8072" stroke="black" points="793.59,-252 652.41,-252 652.41,-216 793.59,-216 793.59,-252"/>
<text text-anchor="middle" x="723" y="-229.8" font-family="Times,serif" font-size="14.00">IconCloseComponent </text>
</g>
<!-- IconsModule&#45;&gt;IconCloseComponent  -->
<g id="edge6" class="edge">
<title>IconsModule&#45;&gt;IconCloseComponent </title>
<path fill="none" stroke="black" stroke-dasharray="5,2" d="M448.16,-173C530.39,-173 696.15,-173 696.15,-173 696.15,-173 696.15,-205.7 696.15,-205.7"/>
<polygon fill="black" stroke="black" points="692.65,-205.7 696.15,-215.7 699.65,-205.7 692.65,-205.7"/>
</g>
<!-- IconDeleteComponent  -->
<g id="node8" class="node">
<title>IconDeleteComponent </title>
<polygon fill="#fb8072" stroke="black" points="634.24,-252 487.76,-252 487.76,-216 634.24,-216 634.24,-252"/>
<text text-anchor="middle" x="561" y="-229.8" font-family="Times,serif" font-size="14.00">IconDeleteComponent </text>
</g>
<!-- IconsModule&#45;&gt;IconDeleteComponent  -->
<g id="edge7" class="edge">
<title>IconsModule&#45;&gt;IconDeleteComponent </title>
<path fill="none" stroke="black" stroke-dasharray="5,2" d="M447.96,-180C486.11,-180 534.71,-180 534.71,-180 534.71,-180 534.71,-205.72 534.71,-205.72"/>
<polygon fill="black" stroke="black" points="531.21,-205.72 534.71,-215.72 538.21,-205.72 531.21,-205.72"/>
</g>
<!-- IconEditComponent  -->
<g id="node9" class="node">
<title>IconEditComponent </title>
<polygon fill="#fb8072" stroke="black" points="469.54,-252 336.46,-252 336.46,-216 469.54,-216 469.54,-252"/>
<text text-anchor="middle" x="403" y="-229.8" font-family="Times,serif" font-size="14.00">IconEditComponent </text>
</g>
<!-- IconsModule&#45;&gt;IconEditComponent  -->
<g id="edge8" class="edge">
<title>IconsModule&#45;&gt;IconEditComponent </title>
<path fill="none" stroke="black" stroke-dasharray="5,2" d="M403,-187.11C403,-187.11 403,-205.99 403,-205.99"/>
<polygon fill="black" stroke="black" points="399.5,-205.99 403,-215.99 406.5,-205.99 399.5,-205.99"/>
</g>
<!-- IconLoginComponent  -->
<g id="node10" class="node">
<title>IconLoginComponent </title>
<polygon fill="#fb8072" stroke="black" points="318.65,-252 175.35,-252 175.35,-216 318.65,-216 318.65,-252"/>
<text text-anchor="middle" x="247" y="-229.8" font-family="Times,serif" font-size="14.00">IconLoginComponent </text>
</g>
<!-- IconsModule&#45;&gt;IconLoginComponent  -->
<g id="edge9" class="edge">
<title>IconsModule&#45;&gt;IconLoginComponent </title>
<path fill="none" stroke="black" stroke-dasharray="5,2" d="M357.96,-180C305.61,-180 226.31,-180 226.31,-180 226.31,-180 226.31,-205.72 226.31,-205.72"/>
<polygon fill="black" stroke="black" points="222.81,-205.72 226.31,-215.72 229.81,-205.72 222.81,-205.72"/>
</g>
<!-- IconNavComponent  -->
<g id="node11" class="node">
<title>IconNavComponent </title>
<polygon fill="#fb8072" stroke="black" points="157.53,-252 24.47,-252 24.47,-216 157.53,-216 157.53,-252"/>
<text text-anchor="middle" x="91" y="-229.8" font-family="Times,serif" font-size="14.00">IconNavComponent </text>
</g>
<!-- IconsModule&#45;&gt;IconNavComponent  -->
<g id="edge10" class="edge">
<title>IconsModule&#45;&gt;IconNavComponent </title>
<path fill="none" stroke="black" stroke-dasharray="5,2" d="M357.94,-173C267.84,-173 74,-173 74,-173 74,-173 74,-205.7 74,-205.7"/>
<polygon fill="black" stroke="black" points="70.5,-205.7 74,-215.7 77.5,-205.7 70.5,-205.7"/>
</g>
</g>
</svg>
